<?xml version="1.0" encoding="iso-8859-1"?>
<!-- Generator: Adobe Illustrator 19.0.0, SVG Export Plug-In . SVG Version: 6.00 Build 0)  -->
<svg version="1.1" id="Capa_1" xmlns="http://www.w3.org/2000/svg" xmlns:xlink="http://www.w3.org/1999/xlink" x="0px" y="0px"
	 viewBox="0 0 511.999 511.999" style="enable-background:new 0 0 511.999 511.999;" xml:space="preserve">
<path style="fill:#FF5A5A;" d="M501.781,183.62c-2.784-58.098-36.1-108.418-82.13-128.619c-13.881-6.092-28.917-9.45-44.623-9.45
	c-27.112,0-51.843,9.171-71.654,20.057c-11.74,6.451-21.755,13.503-29.507,19.607c-11.347,8.934-17.859,15.837-17.859,15.837
	s-27.151-30.533-69.613-46.305c-46.335,20.029-79.927,70.525-82.722,128.872c-2.043,42.717,10.282,75.222,27.656,104.672
	c23.431,39.722,114.764,107.024,171.621,146.553c56.681-39.427,147.611-106.521,171.176-146.553
	C491.537,258.711,503.825,226.337,501.781,183.62z"/>
<path style="fill:#FFFFFF;" d="M449.002,250.369L339.614,140.98c-10.454-10.454-13.645-25.416-9.586-38.628
	c-5.822,1.789-11.307,4.979-15.914,9.586l0,0c-15.061,15.061-15.061,39.481,0,54.541l109.388,109.389
	c15.062,15.061,39.481,15.061,54.541,0l0,0c4.607-4.607,7.797-10.091,9.586-15.914C474.416,264.014,459.456,260.823,449.002,250.369
	z"/>
<path style="fill:#FFDAAE;" d="M478.043,221.326L368.655,111.938c-10.454-10.454-25.416-13.645-38.628-9.586
	c-4.059,13.213-0.868,28.174,9.586,38.628l109.388,109.389c10.454,10.454,25.416,13.645,38.628,9.586
	C491.688,246.742,488.498,231.781,478.043,221.326z"/>
<g>
	<path style="fill:#FFFFFF;" d="M444.669,133.105c11.308-11.308,27.891-14.125,41.828-8.453c-1.883-4.626-4.699-8.96-8.453-12.714
		l0,0c-15.061-15.061-39.481-15.061-54.541,0l-27.423,27.424l0,0l21.167,21.167l0,0L444.669,133.105z"/>
	<path style="fill:#FFFFFF;" d="M335.28,242.493l27.424-27.424l-21.167-21.167l-27.424,27.424
		c-15.061,15.061-15.061,39.481,0,54.541v0.001c3.753,3.753,8.088,6.57,12.714,8.453
		C321.155,270.384,323.972,253.801,335.28,242.493z"/>
</g>
<g>
	<path style="fill:#F4BA64;" d="M396.078,248.445l-6.104-6.104L396.078,248.445z"/>
	<path style="fill:#F4BA64;" d="M478.043,166.48c11.308-11.308,14.125-27.891,8.453-41.828c-13.937-5.672-30.52-2.856-41.828,8.453
		l-27.424,27.423l0,0l33.376,33.376L478.043,166.48z"/>
	<polygon style="fill:#F4BA64;" points="362.703,215.069 362.703,215.069 389.974,242.341 	"/>
	<path style="fill:#F4BA64;" d="M368.655,275.869l27.424-27.424l-6.104-6.105l-27.271-27.271l-27.424,27.424
		c-11.308,11.308-14.125,27.891-8.453,41.828C340.765,289.993,357.348,287.176,368.655,275.869z"/>
</g>
<path d="M342.465,150.291c-0.65,0-1.311-0.07-1.96-0.2c-0.63-0.13-1.26-0.32-1.87-0.57c-0.6-0.25-1.18-0.559-1.72-0.92
	c-0.551-0.359-1.061-0.78-1.521-1.24c-1.859-1.869-2.93-4.439-2.93-7.069c0-0.66,0.06-1.311,0.189-1.96
	c0.131-0.641,0.32-1.271,0.57-1.87c0.25-0.601,0.561-1.18,0.92-1.73c0.37-0.54,0.79-1.05,1.25-1.52c0.46-0.46,0.97-0.87,1.521-1.24
	c0.54-0.36,1.12-0.67,1.72-0.92c0.61-0.25,1.24-0.44,1.87-0.57c3.25-0.649,6.71,0.41,9.03,2.73c0.46,0.47,0.88,0.979,1.239,1.52
	c0.36,0.551,0.67,1.13,0.92,1.73c0.25,0.6,0.44,1.229,0.57,1.87c0.13,0.649,0.2,1.3,0.2,1.96c0,0.649-0.07,1.3-0.2,1.95
	c-0.13,0.64-0.32,1.27-0.57,1.869c-0.25,0.601-0.56,1.181-0.92,1.73c-0.359,0.54-0.779,1.06-1.239,1.52
	C347.675,149.221,345.094,150.291,342.465,150.291z"/>
<path d="M511.769,183.142C511.769,183.141,511.769,183.141,511.769,183.142c-1.875-39.144-16.756-75.948-41.901-103.637
	c-25.74-28.344-59.422-43.954-94.841-43.954c-44.84,0-83.125,22.735-107.348,41.808c-4.617,3.635-8.479,6.958-11.487,9.673
	c-16.776-15.855-60.955-51.479-119.211-51.479c-35.417,0-69.098,15.61-94.839,43.954C16.997,107.195,2.116,144,0.24,183.142
	c-1.866,39.038,7.087,73.033,29.031,110.23c35.487,60.159,213.931,176.536,221.51,181.461c1.657,1.076,3.552,1.614,5.449,1.614
	c1.895,0,3.79-0.538,5.446-1.613c0,0,0.86-0.558,2.464-1.61c30.686-20.149,185.437-123.517,218.604-179.86
	C497.512,268.274,514.159,233.07,511.769,183.142z M491.793,184.098L491.793,184.098c0.617,12.904-0.209,24.728-2.009,35.574
	c-1.403-1.891-2.957-3.704-4.67-5.418l-20.352-20.352l20.353-20.352c1.835-1.835,3.497-3.796,4.995-5.855
	C490.959,173.068,491.526,178.542,491.793,184.098z M361.736,228.245l20.2,20.2l-20.352,20.352c-11.138,11.138-29.26,11.14-40.399,0
	c-11.139-11.138-11.139-29.262,0-40.399l20.352-20.353L361.736,228.245z M403.157,241.381c-0.003-0.003-0.005-0.005-0.007-0.008
	l-27.271-27.271l-54.693-54.694c-5.396-5.395-8.367-12.568-8.367-20.199c0-7.631,2.972-14.805,8.367-20.2s12.569-8.367,20.199-8.367
	c7.631,0,14.805,2.972,20.2,8.367l27.424,27.424l54.541,54.541l27.423,27.423c8.652,8.652,10.579,21.515,5.792,32.049
	L375.542,159.225c-3.906-3.904-10.236-3.904-14.143,0c-3.905,3.905-3.905,10.237,0,14.143l101.23,101.229
	c-3.675,1.678-7.697,2.568-11.857,2.568c-7.631,0-14.805-2.972-20.2-8.367L403.157,241.381z M410.221,139.361l20.352-20.352
	c11.139-11.139,29.262-11.138,40.4,0.001c5.396,5.396,8.367,12.568,8.367,20.199c0,7.631-2.972,14.804-8.367,20.199L450.62,179.76
	L410.221,139.361z M256.233,454.482C225.697,434.268,76.342,333.806,46.497,283.21c-19.844-33.637-27.949-64.204-26.28-99.112
	c3.396-70.881,55.776-128.547,116.765-128.547c55.83,0,98.576,39.054,109.066,49.565l-24.535,32.505
	c-2.688,3.561-2.692,8.472-0.009,12.036l48.5,64.462l-48.5,64.466c-2.678,3.561-2.678,8.463,0,12.023l48.5,64.467l-5.055,6.72
	c-3.32,4.414-2.434,10.683,1.98,14.003c1.802,1.355,3.911,2.01,6.004,2.01c3.035-0.001,6.034-1.377,7.999-3.989l9.577-12.731
	c2.679-3.561,2.679-8.463,0-12.023l-48.5-64.467l48.5-64.466c2.679-3.561,2.679-8.464,0-12.023l-48.493-64.452l38.387-50.857
	c17.913-14.042,53.712-37.248,94.625-37.248c29.36,0,56.72,13.368,77.586,35.136c-0.612-0.023-1.225-0.045-1.841-0.045
	c-12.973,0-25.169,5.052-34.343,14.225l-20.352,20.353l-20.352-20.353c-18.937-18.935-49.746-18.937-68.684,0
	c-9.173,9.174-14.225,21.37-14.225,34.343c0,12.973,5.052,25.169,14.225,34.342l20.352,20.352l-20.352,20.353
	c-18.937,18.937-18.937,49.748,0,68.684c9.469,9.468,21.905,14.202,34.342,14.202c12.438,0,24.874-4.734,34.343-14.202
	l20.352-20.352l20.352,20.352c9.469,9.468,21.905,14.202,34.343,14.202c1.639,0,3.277-0.088,4.909-0.252
	C411.265,350.699,282.639,437.024,256.233,454.482z"/>
<path d="M249.265,410.398c-2.63,0-5.21-1.069-7.07-2.93c-0.46-0.46-0.88-0.97-1.24-1.52c-0.36-0.54-0.67-1.12-0.92-1.73
	c-0.25-0.6-0.44-1.229-0.57-1.87c-0.13-0.64-0.2-1.3-0.2-1.95c0-0.649,0.07-1.31,0.2-1.96c0.13-0.63,0.32-1.26,0.57-1.87
	c0.25-0.6,0.56-1.18,0.92-1.72c0.36-0.55,0.78-1.06,1.24-1.52s0.97-0.88,1.52-1.25c0.54-0.351,1.12-0.66,1.73-0.91
	c0.6-0.25,1.23-0.45,1.87-0.57c1.289-0.26,2.62-0.26,3.91,0c0.63,0.12,1.26,0.32,1.87,0.57c0.6,0.25,1.18,0.56,1.72,0.91
	c0.55,0.37,1.059,0.79,1.519,1.25c0.46,0.46,0.88,0.97,1.251,1.52c0.359,0.54,0.67,1.12,0.92,1.72c0.25,0.61,0.439,1.24,0.569,1.87
	c0.131,0.65,0.19,1.31,0.19,1.96c0,0.65-0.06,1.311-0.19,1.95c-0.13,0.641-0.319,1.271-0.569,1.87c-0.25,0.61-0.561,1.191-0.92,1.73
	c-0.37,0.55-0.79,1.06-1.251,1.52c-0.46,0.46-0.97,0.88-1.519,1.24c-0.54,0.359-1.12,0.67-1.72,0.92
	c-0.61,0.25-1.24,0.439-1.87,0.57C250.575,410.328,249.915,410.398,249.265,410.398z"/>
<g>
</g>
<g>
</g>
<g>
</g>
<g>
</g>
<g>
</g>
<g>
</g>
<g>
</g>
<g>
</g>
<g>
</g>
<g>
</g>
<g>
</g>
<g>
</g>
<g>
</g>
<g>
</g>
<g>
</g>
</svg>
