<svg height="512pt" viewBox="0 0 512 512" width="512pt" xmlns="http://www.w3.org/2000/svg"><path d="m96.914062 18.851562v28.4375c-1.304687 4.875 4.132813 9.179688 9.183594 9.179688-3.570312 17.050781-7.027344 38.8125-10.097656 61.515625 8.363281 0 20.402344.71875 33.46875 1.207031 4.371094-.257812 8.582031-.648437 12.519531-1.207031-3.070312-22.703125-6.527343-44.464844-10.097656-61.519531 5.050781 0 9.179687-4.128906 9.179687-9.179688v-28.433594c0-4.867187-3.980468-8.851562-8.851562-8.851562h-26.449219c-4.871093 0-10.164062 4.164062-8.855469 8.851562zm0 0" fill="#e9ca92" fill-rule="evenodd"/><path d="m85 251.960938h106.488281v192.851562h-106.488281zm0 0" fill="#5fb3b7"/><path d="m96.777344 348.386719c0-13.746094 7.933594-25.628907 19.464844-31.34375-4.671876-2.316407-9.929688-3.625-15.5-3.625-19.308594 0-34.964844 15.65625-34.964844 34.96875 0 19.308593 15.65625 34.964843 34.964844 34.964843 5.570312 0 10.828124-1.308593 15.5-3.625-11.53125-5.710937-19.464844-17.597656-19.464844-31.339843zm0 0" fill="#fff"/><path d="m135.710938 348.386719c0-13.746094-7.933594-25.628907-19.46875-31.34375-11.53125 5.714843-19.464844 17.597656-19.464844 31.34375 0 13.742187 7.933594 25.628906 19.464844 31.339843 11.535156-5.710937 19.46875-17.597656 19.46875-31.339843zm0 0" fill="#ff3855"/><g fill-rule="evenodd"><path d="m149.269531 179.90625c-1.964843-19.453125-4.453125-41.015625-7.265625-61.796875-.261718-.007813-.527344-.015625-.785156-.023437-2.042969.277343-4.15625.511718-6.328125.707031-2.773437 20.570312-5.234375 41.875-7.175781 61.113281-17.214844 5.082031-42.214844 38.414062-42.214844 72.054688h105.988281c0-33.640626-25.003906-66.972657-42.21875-72.054688zm0 0" fill="#ff9822"/><path d="m191.488281 475.585938v-30.773438h-105.988281v30.773438c0 14.527343 13.230469 26.414062 29.402344 26.414062h47.183594c16.167968 0 29.402343-11.886719 29.402343-26.414062zm0 0" fill="#ff9822"/><path d="m406.664062 257.980469v19.238281c0 9.441406-7.722656 17.167969-17.164062 17.167969s-17.164062-7.726563-17.164062-17.167969v-19.238281c0-9.441407-7.726563-17.167969-17.167969-17.167969-9.4375 0-17.164063 7.726562-17.164063 17.167969v45.136719c0 9.441406-7.722656 17.164062-17.164062 17.164062-3.230469 0-6.25-.921875-8.839844-2.488281v184.207031h114.640625c7.894531 0 14.355469-6.460938 14.355469-14.355469v-229.664062zm0 0" fill="#ff9822"/><path d="m431.824219 214.917969c-5.046875-6.238281-12.222657-10.597657-21.671875-10.597657-5.339844-19.925781-47.289063-33.105468-59.351563-12.214843-7.832031-29.222657-81.882812-26.90625-81.882812 20.796875-3.71875 0-7.273438.71875-10.546875 2.015625h45.304687v88.199219c0 9.441406 7.722657 17.167968 17.164063 17.167968s17.164062-7.726562 17.164062-17.167968v-45.136719c0-9.441407 7.726563-17.164063 17.164063-17.164063 9.441406 0 17.167969 7.722656 17.167969 17.164063v19.242187c0 9.4375 7.722656 17.164063 17.164062 17.164063s17.164062-7.726563 17.164062-17.164063v-62.304687zm0 0" fill="#e9ca92"/><path d="m406.664062 214.917969h34.332032v43.0625h-34.332032zm0 0" fill="#ffbf47"/></g><path d="m230.035156 210.78125v276.863281c0 13.429688 10.925782 24.355469 24.355469 24.355469h172.25c13.429687 0 24.355469-10.925781 24.355469-24.355469v-43.828125h33.0625c15.40625 0 27.941406-13.875 27.941406-30.933594v-133.972656c0-17.054687-12.535156-30.929687-27.941406-30.929687h-33.0625v-37.199219c0-21.164062-12.570313-42.984375-33.988282-46.855469-7.199218-12.757812-23.558593-21.050781-38.058593-22.957031-9.960938-1.316406-18.96875.277344-26 4.363281-10.644531-11.007812-29.410157-14.957031-46.359375-12.726562-25.566406 3.367187-43.148438 18.84375-46.914063 40.40625-16.992187 4.160156-29.640625 19.515625-29.640625 37.769531m186.628906 14.136719h14.332032v23.0625h-14.332032zm-147.746093-33.015625c5.523437 0 10-4.476563 10-10 0-23.644532 23.175781-28.53125 30.28125-29.46875 15.140625-1.996094 29.769531 3.164062 31.941406 11.261718 1.046875 3.90625 4.34375 6.796876 8.351563 7.324219 4.011718.527344 7.945312-1.410156 9.964843-4.914062 3.648438-6.320313 13.019531-5.816407 16.882813-5.308594 11.097656 1.460937 22.386718 8.519531 24.152344 15.109375 1.167968 4.371094 5.132812 7.410156 9.65625 7.410156 12.792968 0 18.558593 12.210938 20.269531 21.597656h-23.753907c-5.523437 0-10 4.480469-10 10v62.304688c0 3.953125-3.214843 7.167969-7.167968 7.167969-3.949219 0-7.164063-3.214844-7.164063-7.167969v-19.238281c0-14.980469-12.1875-27.167969-27.164062-27.167969-14.980469 0-27.164063 12.1875-27.164063 27.167969v45.136719c0 3.953124-3.214844 7.164062-7.167968 7.164062-3.949219 0-7.164063-3.210938-7.164063-7.164062v-88.199219c0-5.523438-4.476563-10-10-10h-52.691406c2.476562-7.546875 9.578125-13.015625 17.9375-13.015625zm-18.882813 33.015625h43.640625v23.0625h-43.640625zm180.960938 262.730469c0 2.359374-1.996094 4.351562-4.355469 4.351562h-172.25c-2.359375 0-4.355469-1.992188-4.355469-4.351562v-219.667969h43.640625v35.136719c0 14.980468 12.183594 27.164062 27.164063 27.164062 14.976562 0 27.164062-12.183594 27.164062-27.164062v-45.136719c0-3.953125 3.214844-7.167969 7.167969-7.167969 3.949219 0 7.164063 3.214844 7.164063 7.167969v19.238281c0 14.980469 12.183593 27.167969 27.164062 27.167969s27.164062-12.1875 27.164062-27.167969v-9.238281h14.332032zm61.003906-74.761719c0 5.824219-3.710938 10.933593-7.941406 10.933593h-33.0625v-155.839843h33.0625c4.230468 0 7.941406 5.105469 7.941406 10.929687zm0 0"/><path d="m340.515625 351.683594c-5.523437 0-10 4.476562-10 10v97.253906c0 5.523438 4.476563 10 10 10s10-4.476562 10-10v-97.253906c0-5.523438-4.476563-10-10-10zm0 0"/><path d="m397.933594 351.683594c-5.523438 0-10 4.476562-10 10v97.253906c0 5.523438 4.476562 10 10 10 5.523437 0 10-4.476562 10-10v-97.253906c0-5.523438-4.476563-10-10-10zm0 0"/><path d="m283.101562 380.273438c-5.523437 0-10 4.480468-10 10v.234374c0 5.519532 4.476563 10 10 10 5.523438 0 10-4.480468 10-10v-.234374c0-5.519532-4.476562-10-10-10zm0 0"/><path d="m283.101562 408.6875c-5.523437 0-10 4.476562-10 10v40.25c0 5.523438 4.476563 10 10 10 5.519532 0 10-4.476562 10-10v-40.25c0-5.523438-4.480468-10-10-10zm0 0"/><path d="m94.554688 189.910156h.304687c5.523437 0 10-4.476562 10-10 0-5.523437-4.476563-10-10-10h-.304687c-5.523438 0-10 4.476563-10 10 0 5.523438 4.476562 10 10 10zm0 0"/><path d="m158.621094 173.039062c-4.433594-42.597656-10-82.710937-15.296875-110.390624 4.691406-3.5 7.746093-9.074219 7.746093-15.363282v-28.429687c0-10.398438-8.457031-18.855469-18.851562-18.855469h-62.949219c-6.078125 0-12.097656 2.957031-15.710937 7.71875-2.71875 3.582031-3.828125 7.929688-3.140625 12.152344v26.429687c-.683594 4.3125.46875 8.753907 3.265625 12.398438 1.238281 1.609375 2.75 3.007812 4.4375 4.160156-5.285156 27.675781-10.835938 67.691406-15.253906 110.179687-20.769532 11.117188-42.867188 45.320313-42.867188 78.921876v223.625c0 20.078124 17.675781 36.414062 39.402344 36.414062h122.683594c21.726562 0 39.402343-16.335938 39.402343-36.414062v-223.625c0-33.601563-22.097656-67.804688-42.867187-78.921876zm-88.203125-153.039062h60.652343v26.5c-.039062.003906-.074218.011719-.109374.015625-.132813.011719-.261719.03125-.394532.050781-.207031.027344-.414062.054688-.617187.097656-.035157.007813-.070313.007813-.105469.015626-.074219.015624-.144531.039062-.214844.058593-.21875.050781-.4375.105469-.648437.167969-.109375.035156-.214844.070312-.324219.105469-.195312.066406-.386719.140625-.578125.21875-.117187.046875-.238281.101562-.355469.15625-.164062.074219-.328125.15625-.492187.242187-.128907.066406-.253907.136719-.378907.207032-.144531.085937-.285156.175781-.421874.265624-.128907.082032-.257813.167969-.378907.257813-.128906.09375-.257812.191406-.382812.292969-.117188.09375-.238281.191406-.351563.289062-.128906.109375-.246094.226563-.367187.34375-.101563.101563-.207031.195313-.304688.300782-.128906.136718-.25.277343-.371093.421874-.078126.089844-.160157.179688-.234376.273438-.136718.171875-.261718.355469-.386718.539062-.050782.070313-.101563.140626-.148438.214844-.144531.21875-.277344.445313-.402344.679688-.023437.042968-.046874.082031-.070312.125-.144531.273437-.273438.550781-.390625.835937 0 .007813-.003906.015625-.007813.019531-.359374.878907-.597656 1.820313-.691406 2.800782-.023437.21875-.027344.441406-.035156.660156-.003906.105469-.011719.207031-.011719.3125v.007812c0 .195313.015625.390626.027344.582032.03125.507812.085937 1.007812.191406 1.488281 2.796875 13.378906 5.722657 30.765625 8.546875 50.550781-15.785156 1.085938-34.421875.261719-49.949218-.425781-3.464844-.152344-6.714844-.296875-9.761719-.414063 2.734375-19.0625 5.558593-35.851562 8.269531-48.933593.269531-.902344.421875-1.859375.421875-2.851563 0-5.164062-3.878906-9.402344-8.894531-9.933594-.058594-.007812-.113282-.015624-.171875-.019531-.054688-.007812-.105469-.015625-.15625-.019531zm-15.371094 169.496094c3.894531-1.148438 6.710937-4.542969 7.117187-8.585938 1.84375-18.234375 3.902344-36.082031 6.066407-52.738281 3.519531.121094 7.402343.292969 11.589843.476563 10.320313.460937 21.953126.976562 33.453126.976562 6.847656 0 13.640624-.1875 20.085937-.675781 1.6875 13.058593 3.3125 26.839843 4.820313 40.957031h-15.019532c-5.519531 0-10 4.476562-10 10s4.480469 10 10 10h24.445313c10.847656 4.375 29.007812 26.757812 33.054687 52.054688h-159.832031c4.195313-26.226563 23.5625-49.316407 34.21875-52.464844zm-35.046875 72.464844h161.488281v172.851562h-161.488281zm142.085938 230.039062h-122.683594c-10.515625 0-19.402344-7.515625-19.402344-16.414062v-20.773438h161.488281v20.773438c0 8.898437-8.886719 16.414062-19.402343 16.414062zm0 0"/><path d="m100.742188 303.417969c-24.792969 0-44.964844 20.171875-44.964844 44.96875 0 24.792969 20.171875 44.964843 44.964844 44.964843 24.796874 0 44.96875-20.171874 44.96875-44.964843 0-24.796875-20.171876-44.96875-44.96875-44.96875zm0 69.933593c-13.765626 0-24.964844-11.199218-24.964844-24.964843 0-13.769531 11.199218-24.96875 24.964844-24.96875 13.769531 0 24.96875 11.199219 24.96875 24.96875 0 13.765625-11.199219 24.964843-24.96875 24.964843zm0 0"/></svg>