<?xml version="1.0" encoding="utf-8"?>
<!-- Generator: Adobe Illustrator 24.2.1, SVG Export Plug-In . SVG Version: 6.00 Build 0)  -->
<svg version="1.1" id="Layer_1" xmlns="http://www.w3.org/2000/svg" xmlns:xlink="http://www.w3.org/1999/xlink" x="0px" y="0px"
	 viewBox="0 0 512 512" style="enable-background:new 0 0 512 512;" xml:space="preserve">
<style type="text/css">
	.st0{fill-rule:evenodd;clip-rule:evenodd;fill:#E9CA92;}
	.st1{fill:#5FB3B7;}
	.st2{fill:#FFFFFF;}
	.st3{fill:#FF3855;}
	.st4{fill-rule:evenodd;clip-rule:evenodd;fill:#FF9822;}
	.st5{fill-rule:evenodd;clip-rule:evenodd;fill:#FFBF47;}
</style>
<path class="st0" d="M96.9,18.9v28.4c-1.3,4.9,4.1,9.2,9.2,9.2c-3.6,17.1-7,38.8-10.1,61.5c8.4,0,20.4,0.7,33.5,1.2
	c4.4-0.3,8.6-0.6,12.5-1.2c-3.1-22.7-6.5-44.5-10.1-61.5c5.1,0,9.2-4.1,9.2-9.2V18.9c0-4.9-4-8.9-8.9-8.9h-26.4
	C100.9,10,95.6,14.2,96.9,18.9z"/>
<path class="st1" d="M85,252h106.5v192.9H85V252z"/>
<path class="st2" d="M96.8,348.4c0-13.7,7.9-25.6,19.5-31.3c-4.7-2.3-9.9-3.6-15.5-3.6c-19.3,0-35,15.7-35,35c0,19.3,15.7,35,35,35
	c5.6,0,10.8-1.3,15.5-3.6C104.7,374,96.8,362.1,96.8,348.4z"/>
<path class="st3" d="M135.7,348.4c0-13.7-7.9-25.6-19.5-31.3c-11.5,5.7-19.5,17.6-19.5,31.3c0,13.7,7.9,25.6,19.5,31.3
	C127.8,374,135.7,362.1,135.7,348.4z"/>
<g>
	<path class="st4" d="M149.3,179.9c-2-19.5-4.5-41-7.3-61.8c-0.3,0-0.5,0-0.8,0c-2,0.3-4.2,0.5-6.3,0.7c-2.8,20.6-5.2,41.9-7.2,61.1
		c-17.2,5.1-42.2,38.4-42.2,72.1h106C191.5,218.3,166.5,185,149.3,179.9z"/>
	<path class="st4" d="M191.5,475.6v-30.8h-106v30.8c0,14.5,13.2,26.4,29.4,26.4h47.2C178.3,502,191.5,490.1,191.5,475.6z"/>
	<path class="st4" d="M406.7,258v19.2c0,9.4-7.7,17.2-17.2,17.2s-17.2-7.7-17.2-17.2V258c0-9.4-7.7-17.2-17.2-17.2
		c-9.4,0-17.2,7.7-17.2,17.2v45.1c0,9.4-7.7,17.2-17.2,17.2c-3.2,0-6.2-0.9-8.8-2.5V502h114.6c7.9,0,14.4-6.5,14.4-14.4V258H406.7z"
		/>
	<path class="st0" d="M431.8,214.9c-5-6.2-12.2-10.6-21.7-10.6c-5.3-19.9-47.3-33.1-59.4-12.2c-7.8-29.2-81.9-26.9-81.9,20.8
		c-3.7,0-7.3,0.7-10.5,2h45.3v88.2c0,9.4,7.7,17.2,17.2,17.2s17.2-7.7,17.2-17.2V258c0-9.4,7.7-17.2,17.2-17.2
		c9.4,0,17.2,7.7,17.2,17.2v19.2c0,9.4,7.7,17.2,17.2,17.2s17.2-7.7,17.2-17.2v-62.3H431.8z"/>
	<path class="st5" d="M406.7,214.9H441V258h-34.3V214.9z"/>
</g>
<path class="st2" d="M230,210.8v276.9c0,13.4,10.9,24.4,24.4,24.4h172.2c13.4,0,24.4-10.9,24.4-24.4v-43.8h33.1
	c15.4,0,27.9-13.9,27.9-30.9v-134c0-17.1-12.5-30.9-27.9-30.9H451v-37.2c0-21.2-12.6-43-34-46.9c-7.2-12.8-23.6-21.1-38.1-23
	c-10-1.3-19,0.3-26,4.4c-10.6-11-29.4-15-46.4-12.7c-25.6,3.4-43.1,18.8-46.9,40.4C242.7,177.2,230,192.5,230,210.8 M416.7,224.9
	H431V248h-14.3V224.9z M268.9,191.9c5.5,0,10-4.5,10-10c0-23.6,23.2-28.5,30.3-29.5c15.1-2,29.8,3.2,31.9,11.3
	c1,3.9,4.3,6.8,8.4,7.3c4,0.5,7.9-1.4,10-4.9c3.6-6.3,13-5.8,16.9-5.3c11.1,1.5,22.4,8.5,24.2,15.1c1.2,4.4,5.1,7.4,9.7,7.4
	c12.8,0,18.6,12.2,20.3,21.6h-23.8c-5.5,0-10,4.5-10,10v62.3c0,4-3.2,7.2-7.2,7.2c-3.9,0-7.2-3.2-7.2-7.2V258
	c0-15-12.2-27.2-27.2-27.2c-15,0-27.2,12.2-27.2,27.2v45.1c0,4-3.2,7.2-7.2,7.2c-3.9,0-7.2-3.2-7.2-7.2v-88.2c0-5.5-4.5-10-10-10
	H251C253.5,197.4,260.6,191.9,268.9,191.9z M250,224.9h43.6V248H250V224.9z M431,487.6c0,2.4-2,4.4-4.4,4.4H254.4
	c-2.4,0-4.4-2-4.4-4.4V268h43.6v35.1c0,15,12.2,27.2,27.2,27.2c15,0,27.2-12.2,27.2-27.2V258c0-4,3.2-7.2,7.2-7.2
	c3.9,0,7.2,3.2,7.2,7.2v19.2c0,15,12.2,27.2,27.2,27.2s27.2-12.2,27.2-27.2V268H431V487.6z M492,412.9c0,5.8-3.7,10.9-7.9,10.9H451
	V268h33.1c4.2,0,7.9,5.1,7.9,10.9V412.9z"/>
<path class="st2" d="M340.5,351.7c-5.5,0-10,4.5-10,10v97.3c0,5.5,4.5,10,10,10s10-4.5,10-10v-97.3
	C350.5,356.2,346,351.7,340.5,351.7z"/>
<path class="st2" d="M397.9,351.7c-5.5,0-10,4.5-10,10v97.3c0,5.5,4.5,10,10,10s10-4.5,10-10v-97.3
	C407.9,356.2,403.5,351.7,397.9,351.7z"/>
<path class="st2" d="M283.1,380.3c-5.5,0-10,4.5-10,10v0.2c0,5.5,4.5,10,10,10s10-4.5,10-10v-0.2
	C293.1,384.8,288.6,380.3,283.1,380.3z"/>
<path class="st2" d="M283.1,408.7c-5.5,0-10,4.5-10,10v40.2c0,5.5,4.5,10,10,10c5.5,0,10-4.5,10-10v-40.2
	C293.1,413.2,288.6,408.7,283.1,408.7z"/>
<path class="st2" d="M94.6,189.9h0.3c5.5,0,10-4.5,10-10s-4.5-10-10-10h-0.3c-5.5,0-10,4.5-10,10S89,189.9,94.6,189.9z"/>
<path class="st2" d="M158.6,173c-4.4-42.6-10-82.7-15.3-110.4c4.7-3.5,7.7-9.1,7.7-15.4V18.9c0-10.4-8.5-18.9-18.9-18.9H69.3
	c-6.1,0-12.1,3-15.7,7.7c-2.7,3.6-3.8,7.9-3.1,12.2v26.4c-0.7,4.3,0.5,8.8,3.3,12.4c1.2,1.6,2.8,3,4.4,4.2
	C52.8,90.5,47.3,130.6,42.9,173C22.1,184.2,0,218.4,0,252v223.6C0,495.7,17.7,512,39.4,512h122.7c21.7,0,39.4-16.3,39.4-36.4V252
	C201.5,218.4,179.4,184.2,158.6,173z M70.4,20h60.7v26.5c0,0-0.1,0-0.1,0c-0.1,0-0.3,0-0.4,0.1c-0.2,0-0.4,0.1-0.6,0.1
	c0,0-0.1,0-0.1,0c-0.1,0-0.1,0-0.2,0.1c-0.2,0.1-0.4,0.1-0.6,0.2c-0.1,0-0.2,0.1-0.3,0.1c-0.2,0.1-0.4,0.1-0.6,0.2
	c-0.1,0-0.2,0.1-0.4,0.2c-0.2,0.1-0.3,0.2-0.5,0.2c-0.1,0.1-0.3,0.1-0.4,0.2c-0.1,0.1-0.3,0.2-0.4,0.3c-0.1,0.1-0.3,0.2-0.4,0.3
	c-0.1,0.1-0.3,0.2-0.4,0.3c-0.1,0.1-0.2,0.2-0.4,0.3c-0.1,0.1-0.2,0.2-0.4,0.3c-0.1,0.1-0.2,0.2-0.3,0.3c-0.1,0.1-0.2,0.3-0.4,0.4
	c-0.1,0.1-0.2,0.2-0.2,0.3c-0.1,0.2-0.3,0.4-0.4,0.5c-0.1,0.1-0.1,0.1-0.1,0.2c-0.1,0.2-0.3,0.4-0.4,0.7c0,0,0,0.1-0.1,0.1
	c-0.1,0.3-0.3,0.6-0.4,0.8c0,0,0,0,0,0c-0.4,0.9-0.6,1.8-0.7,2.8c0,0.2,0,0.4,0,0.7c0,0.1,0,0.2,0,0.3v0c0,0.2,0,0.4,0,0.6
	c0,0.5,0.1,1,0.2,1.5c2.8,13.4,5.7,30.8,8.5,50.6c-15.8,1.1-34.4,0.3-49.9-0.4c-3.5-0.2-6.7-0.3-9.8-0.4c2.7-19.1,5.6-35.9,8.3-48.9
	c0.3-0.9,0.4-1.9,0.4-2.9c0-5.2-3.9-9.4-8.9-9.9c-0.1,0-0.1,0-0.2,0c-0.1,0-0.1,0-0.2,0V20z M55,189.5c3.9-1.1,6.7-4.5,7.1-8.6
	c1.8-18.2,3.9-36.1,6.1-52.7c3.5,0.1,7.4,0.3,11.6,0.5c10.3,0.5,22,1,33.5,1c6.8,0,13.6-0.2,20.1-0.7c1.7,13.1,3.3,26.8,4.8,41h-15
	c-5.5,0-10,4.5-10,10s4.5,10,10,10h24.4c10.8,4.4,29,26.8,33.1,52.1H20.8C25,215.7,44.4,192.6,55,189.5z M20,262h161.5v172.9H20V262
	z M162.1,492H39.4c-10.5,0-19.4-7.5-19.4-16.4v-20.8h161.5v20.8C181.5,484.5,172.6,492,162.1,492z"/>
<path class="st2" d="M100.7,303.4c-24.8,0-45,20.2-45,45c0,24.8,20.2,45,45,45c24.8,0,45-20.2,45-45
	C145.7,323.6,125.5,303.4,100.7,303.4z M100.7,373.4c-13.8,0-25-11.2-25-25c0-13.8,11.2-25,25-25c13.8,0,25,11.2,25,25
	C125.7,362.2,114.5,373.4,100.7,373.4z"/>
</svg>
