<?xml version="1.0" encoding="utf-8"?>
<!-- Generator: Adobe Illustrator 24.2.1, SVG Export Plug-In . SVG Version: 6.00 Build 0)  -->
<svg version="1.1" id="Capa_1" xmlns="http://www.w3.org/2000/svg" xmlns:xlink="http://www.w3.org/1999/xlink" x="0px" y="0px"
	 viewBox="0 0 512 512" style="enable-background:new 0 0 512 512;" xml:space="preserve">
<style type="text/css">
	.st0{fill:#FFFFFF;}
</style>
<g>
	<g>
		<path class="st0" d="M256,0C114.8,0,0,114.8,0,256s114.8,256,256,256s256-114.8,256-256S397.2,0,256,0z M256,32
			c45.2,0,87.3,13.6,122.5,36.7c-12.3,6.8-23.6,21.2-23.6,51.6c0,16.2,11,35,23.8,56.7c15.3,26.1,34.3,58.6,29.6,82
			c-5.2,15.5-18.6,50.8-33,88.4l-66.1-190.1c1.3-0.4,2.8-0.6,4.1-1c8.4-2.8,12.9-11.8,10.1-20.2c-2.8-8.4-11.8-12.8-20.3-10.1
			c-13.6,4.5-38.3,4.4-53.1,4.4h-4.4h-4.4c-14.7,0-39.5,0.1-53.1-4.4c-8.3-2.8-17.4,1.7-20.2,10.1s1.7,17.4,10.1,20.2
			c6.8,2.3,14.7,3.5,22.8,4.4l39.4,102.3L202.9,357l-63.6-198.9c2.3-0.5,4.8-1,7-1.7c8.4-2.8,12.9-11.8,10.1-20.2
			s-11.8-12.9-20.2-10.1c-13.6,4.5-38.3,4.4-53.2,4.4h-4.4c-2.9,0-5.2-0.2-7.7-0.4C111.3,70.9,179.2,32,256,32z M32,256
			c0-25.2,4.4-49.3,12-71.9l98.2,264.5C76.4,409.5,32,338,32,256z M256,480c-22.1,0-43.5-3.4-63.7-9.3l64.8-163.5l62.8,163.4
			C299.6,476.6,278.2,480,256,480z M370.5,448.1c20.7-53.2,56.4-145.2,67.2-176.4l0.4,0.1c0.4-1.3,0.9-2.9,1.2-4.9
			c3.6-10,6.7-19.2,9.2-27c7.9-25,12.9-47,15.6-66.4c10.2,25.5,15.9,53.3,15.9,82.4C480,337.6,436,409,370.5,448.1z"/>
	</g>
</g>
</svg>
